<svg width="268" height="282" viewBox="0 0 268 282" fill="none" xmlns="http://www.w3.org/2000/svg">
<path d="M48.336 222C47.968 222 47.648 221.864 47.376 221.592C47.104 221.32 46.968 221 46.968 220.632V205.848C46.968 205.48 47.104 205.16 47.376 204.888C47.648 204.616 47.968 204.48 48.336 204.48H48.36C48.728 204.48 49.048 204.616 49.32 204.888C49.592 205.16 49.728 205.48 49.728 205.848V219.576C49.728 219.72 49.792 219.792 49.92 219.792H56.664C56.968 219.792 57.224 219.904 57.432 220.128C57.656 220.336 57.768 220.592 57.768 220.896C57.768 221.2 57.656 221.464 57.432 221.688C57.224 221.896 56.968 222 56.664 222H48.336ZM60.5008 205.32C60.5008 204.952 60.6288 204.64 60.8848 204.384C61.1568 204.128 61.4688 204 61.8208 204C62.1728 204 62.4768 204.128 62.7328 204.384C63.0048 204.64 63.1408 204.952 63.1408 205.32C63.1408 205.688 63.0048 206 62.7328 206.256C62.4768 206.512 62.1728 206.64 61.8208 206.64C61.4688 206.64 61.1568 206.512 60.8848 206.256C60.6288 206 60.5008 205.688 60.5008 205.32ZM62.7328 221.616C62.4768 221.872 62.1728 222 61.8208 222C61.4688 222 61.1568 221.872 60.8848 221.616C60.6288 221.36 60.5008 221.048 60.5008 220.68V210.84C60.5008 210.472 60.6288 210.16 60.8848 209.904C61.1568 209.648 61.4688 209.52 61.8208 209.52C62.1728 209.52 62.4768 209.648 62.7328 209.904C63.0048 210.16 63.1408 210.472 63.1408 210.84V220.68C63.1408 221.048 63.0048 221.36 62.7328 221.616ZM70.3221 216.72C68.6901 216.32 67.5381 215.816 66.8661 215.208C66.2101 214.584 65.8821 213.808 65.8821 212.88C65.8821 211.76 66.2821 210.88 67.0821 210.24C67.8981 209.6 69.0981 209.28 70.6821 209.28C71.7061 209.28 72.7381 209.392 73.7781 209.616C74.0661 209.68 74.2981 209.84 74.4741 210.096C74.6661 210.336 74.7621 210.608 74.7621 210.912C74.7621 211.168 74.6581 211.368 74.4501 211.512C74.2421 211.656 74.0181 211.688 73.7781 211.608C72.7701 211.336 71.8181 211.2 70.9221 211.2C69.2421 211.2 68.4021 211.68 68.4021 212.64C68.4021 213.12 68.5621 213.512 68.8821 213.816C69.2021 214.12 69.7621 214.368 70.5621 214.56C72.4021 214.992 73.6421 215.512 74.2821 216.12C74.9221 216.712 75.2421 217.592 75.2421 218.76C75.2421 219.848 74.8181 220.704 73.9701 221.328C73.1381 221.936 71.9221 222.24 70.3221 222.24C69.2821 222.24 68.2421 222.104 67.2021 221.832C66.9141 221.752 66.6821 221.592 66.5061 221.352C66.3301 221.096 66.2421 220.816 66.2421 220.512C66.2421 220.272 66.3381 220.08 66.5301 219.936C66.7381 219.792 66.9541 219.76 67.1781 219.84C68.1701 220.16 69.1381 220.32 70.0821 220.32C71.8421 220.32 72.7221 219.8 72.7221 218.76C72.7221 218.264 72.5461 217.864 72.1941 217.56C71.8421 217.24 71.2181 216.96 70.3221 216.72ZM77.0271 211.92C76.7551 211.92 76.5231 211.824 76.3311 211.632C76.1551 211.44 76.0671 211.216 76.0671 210.96C76.0671 210.704 76.1551 210.48 76.3311 210.288C76.5231 210.096 76.7551 210 77.0271 210H78.3711C78.5151 210 78.5871 209.928 78.5871 209.784V206.688C78.5871 206.336 78.7071 206.04 78.9471 205.8C79.1871 205.56 79.4831 205.44 79.8351 205.44C80.1871 205.44 80.4831 205.56 80.7231 205.8C80.9791 206.04 81.1071 206.336 81.1071 206.688V209.784C81.1071 209.928 81.1791 210 81.3231 210H84.4671C84.7391 210 84.9631 210.096 85.1391 210.288C85.3311 210.48 85.4271 210.704 85.4271 210.96C85.4271 211.216 85.3311 211.44 85.1391 211.632C84.9631 211.824 84.7391 211.92 84.4671 211.92H81.3231C81.1791 211.92 81.1071 211.992 81.1071 212.136V217.68C81.1071 218.768 81.2351 219.48 81.4911 219.816C81.7471 220.152 82.2591 220.32 83.0271 220.32C83.3951 220.32 83.7471 220.296 84.0831 220.248C84.3391 220.216 84.5631 220.272 84.7551 220.416C84.9631 220.56 85.0671 220.752 85.0671 220.992C85.0671 221.28 84.9711 221.536 84.7791 221.76C84.5871 221.984 84.3471 222.112 84.0591 222.144C83.3871 222.208 82.8831 222.24 82.5471 222.24C81.0751 222.24 80.0431 221.928 79.4511 221.304C78.8751 220.68 78.5871 219.552 78.5871 217.92V212.136C78.5871 211.992 78.5151 211.92 78.3711 211.92H77.0271ZM93.3236 215.712C92.0116 215.712 91.0196 215.936 90.3476 216.384C89.6916 216.816 89.3636 217.408 89.3636 218.16C89.3636 218.752 89.5396 219.24 89.8916 219.624C90.2436 220.008 90.6676 220.2 91.1636 220.2C92.2196 220.2 93.0596 219.872 93.6836 219.216C94.3236 218.544 94.6436 217.632 94.6436 216.48V215.904C94.6436 215.776 94.5716 215.712 94.4276 215.712H93.3236ZM90.5636 222.24C89.4756 222.24 88.5796 221.888 87.8756 221.184C87.1876 220.48 86.8436 219.552 86.8436 218.4C86.8436 216.992 87.3796 215.904 88.4516 215.136C89.5236 214.352 91.1476 213.96 93.3236 213.96H94.4276C94.5716 213.96 94.6436 213.888 94.6436 213.744V213.48C94.6436 212.632 94.4436 212.04 94.0436 211.704C93.6436 211.368 92.9236 211.2 91.8836 211.2C90.9556 211.2 89.8516 211.392 88.5716 211.776C88.3316 211.856 88.0996 211.824 87.8756 211.68C87.6676 211.52 87.5636 211.312 87.5636 211.056C87.5636 210.736 87.6596 210.448 87.8516 210.192C88.0436 209.936 88.2916 209.776 88.5956 209.712C89.7476 209.424 90.8436 209.28 91.8836 209.28C93.8996 209.28 95.2836 209.64 96.0356 210.36C96.7876 211.08 97.1636 212.4 97.1636 214.32V220.824C97.1636 221.144 97.0436 221.424 96.8036 221.664C96.5796 221.888 96.3076 222 95.9876 222C95.6676 222 95.3876 221.888 95.1476 221.664C94.9236 221.424 94.8036 221.144 94.7876 220.824L94.7636 220.224C94.7636 220.208 94.7556 220.2 94.7396 220.2C94.7076 220.2 94.6916 220.208 94.6916 220.224C93.7636 221.568 92.3876 222.24 90.5636 222.24ZM107.155 221.64C106.915 221.88 106.619 222 106.267 222C105.915 222 105.611 221.88 105.355 221.64C105.115 221.384 104.995 221.08 104.995 220.728V205.752C104.995 205.4 105.115 205.104 105.355 204.864C105.611 204.608 105.915 204.48 106.267 204.48C107.115 204.48 107.731 204.856 108.115 205.608L112.843 214.776C112.843 214.792 112.851 214.8 112.867 214.8C112.883 214.8 112.891 214.792 112.891 214.776L117.595 205.656C117.995 204.872 118.635 204.48 119.515 204.48C119.883 204.48 120.195 204.608 120.451 204.864C120.707 205.12 120.835 205.432 120.835 205.8V220.68C120.835 221.048 120.707 221.36 120.451 221.616C120.195 221.872 119.883 222 119.515 222C119.147 222 118.835 221.872 118.579 221.616C118.323 221.36 118.195 221.048 118.195 220.68V209.064C118.195 209.048 118.187 209.04 118.171 209.04C118.155 209.04 118.147 209.048 118.147 209.064L114.595 216.12C114.227 216.84 113.651 217.2 112.867 217.2C112.083 217.2 111.507 216.84 111.139 216.12L107.587 209.064C107.587 209.048 107.579 209.04 107.563 209.04C107.547 209.04 107.539 209.048 107.539 209.064V220.728C107.539 221.08 107.411 221.384 107.155 221.64ZM129.216 215.712C127.904 215.712 126.912 215.936 126.24 216.384C125.584 216.816 125.256 217.408 125.256 218.16C125.256 218.752 125.432 219.24 125.784 219.624C126.136 220.008 126.56 220.2 127.056 220.2C128.112 220.2 128.952 219.872 129.576 219.216C130.216 218.544 130.536 217.632 130.536 216.48V215.904C130.536 215.776 130.464 215.712 130.32 215.712H129.216ZM126.456 222.24C125.368 222.24 124.472 221.888 123.768 221.184C123.08 220.48 122.736 219.552 122.736 218.4C122.736 216.992 123.272 215.904 124.344 215.136C125.416 214.352 127.04 213.96 129.216 213.96H130.32C130.464 213.96 130.536 213.888 130.536 213.744V213.48C130.536 212.632 130.336 212.04 129.936 211.704C129.536 211.368 128.816 211.2 127.776 211.2C126.848 211.2 125.744 211.392 124.464 211.776C124.224 211.856 123.992 211.824 123.768 211.68C123.56 211.52 123.456 211.312 123.456 211.056C123.456 210.736 123.552 210.448 123.744 210.192C123.936 209.936 124.184 209.776 124.488 209.712C125.64 209.424 126.736 209.28 127.776 209.28C129.792 209.28 131.176 209.64 131.928 210.36C132.68 211.08 133.056 212.4 133.056 214.32V220.824C133.056 221.144 132.936 221.424 132.696 221.664C132.472 221.888 132.2 222 131.88 222C131.56 222 131.28 221.888 131.04 221.664C130.816 221.424 130.696 221.144 130.68 220.824L130.656 220.224C130.656 220.208 130.648 220.2 130.632 220.2C130.6 220.2 130.584 220.208 130.584 220.224C129.656 221.568 128.28 222.24 126.456 222.24ZM137.447 221.616C137.191 221.872 136.879 222 136.511 222C136.143 222 135.831 221.872 135.575 221.616C135.319 221.36 135.191 221.048 135.191 220.68V210.768C135.191 210.416 135.311 210.12 135.551 209.88C135.791 209.64 136.087 209.52 136.439 209.52C136.791 209.52 137.087 209.64 137.327 209.88C137.583 210.12 137.711 210.416 137.711 210.768V211.896C137.711 211.912 137.719 211.92 137.735 211.92C137.767 211.92 137.783 211.912 137.783 211.896C138.263 211.24 138.903 210.704 139.703 210.288C140.503 209.856 141.375 209.608 142.319 209.544C142.607 209.528 142.847 209.616 143.039 209.808C143.247 210 143.351 210.24 143.351 210.528C143.351 210.816 143.247 211.064 143.039 211.272C142.847 211.464 142.607 211.568 142.319 211.584C140.783 211.648 139.647 212.048 138.911 212.784C138.191 213.504 137.831 214.576 137.831 216V220.68C137.831 221.048 137.703 221.36 137.447 221.616ZM150.277 215.712C148.965 215.712 147.973 215.936 147.301 216.384C146.645 216.816 146.317 217.408 146.317 218.16C146.317 218.752 146.493 219.24 146.845 219.624C147.197 220.008 147.621 220.2 148.117 220.2C149.173 220.2 150.013 219.872 150.637 219.216C151.277 218.544 151.597 217.632 151.597 216.48V215.904C151.597 215.776 151.525 215.712 151.381 215.712H150.277ZM147.517 222.24C146.429 222.24 145.533 221.888 144.829 221.184C144.141 220.48 143.797 219.552 143.797 218.4C143.797 216.992 144.333 215.904 145.405 215.136C146.477 214.352 148.101 213.96 150.277 213.96H151.381C151.525 213.96 151.597 213.888 151.597 213.744V213.48C151.597 212.632 151.397 212.04 150.997 211.704C150.597 211.368 149.877 211.2 148.837 211.2C147.909 211.2 146.805 211.392 145.525 211.776C145.285 211.856 145.053 211.824 144.829 211.68C144.621 211.52 144.517 211.312 144.517 211.056C144.517 210.736 144.613 210.448 144.805 210.192C144.997 209.936 145.245 209.776 145.549 209.712C146.701 209.424 147.797 209.28 148.837 209.28C150.853 209.28 152.237 209.64 152.989 210.36C153.741 211.08 154.117 212.4 154.117 214.32V220.824C154.117 221.144 153.997 221.424 153.757 221.664C153.533 221.888 153.261 222 152.941 222C152.621 222 152.341 221.888 152.101 221.664C151.877 221.424 151.757 221.144 151.741 220.824L151.717 220.224C151.717 220.208 151.709 220.2 151.693 220.2C151.661 220.2 151.645 220.208 151.645 220.224C150.717 221.568 149.341 222.24 147.517 222.24ZM158.375 220.704L155.039 210.816C154.927 210.496 154.967 210.2 155.159 209.928C155.367 209.656 155.639 209.52 155.975 209.52C156.375 209.52 156.735 209.64 157.055 209.88C157.391 210.12 157.615 210.432 157.727 210.816L160.511 220.536C160.511 220.552 160.519 220.56 160.535 220.56C160.551 220.56 160.559 220.552 160.559 220.536L163.367 210.792C163.479 210.424 163.687 210.12 163.991 209.88C164.311 209.64 164.663 209.52 165.047 209.52C165.383 209.52 165.639 209.656 165.815 209.928C166.007 210.184 166.047 210.464 165.935 210.768L162.599 220.704C162.471 221.088 162.239 221.4 161.903 221.64C161.583 221.88 161.215 222 160.799 222H160.175C159.775 222 159.407 221.88 159.071 221.64C158.735 221.4 158.503 221.088 158.375 220.704ZM167.962 205.32C167.962 204.952 168.09 204.64 168.346 204.384C168.618 204.128 168.93 204 169.282 204C169.634 204 169.938 204.128 170.194 204.384C170.466 204.64 170.602 204.952 170.602 205.32C170.602 205.688 170.466 206 170.194 206.256C169.938 206.512 169.634 206.64 169.282 206.64C168.93 206.64 168.618 206.512 168.346 206.256C168.09 206 167.962 205.688 167.962 205.32ZM170.194 221.616C169.938 221.872 169.634 222 169.282 222C168.93 222 168.618 221.872 168.346 221.616C168.09 221.36 167.962 221.048 167.962 220.68V210.84C167.962 210.472 168.09 210.16 168.346 209.904C168.618 209.648 168.93 209.52 169.282 209.52C169.634 209.52 169.938 209.648 170.194 209.904C170.466 210.16 170.602 210.472 170.602 210.84V220.68C170.602 221.048 170.466 221.36 170.194 221.616ZM176.306 221.616C176.05 221.872 175.746 222 175.394 222C175.042 222 174.73 221.872 174.458 221.616C174.202 221.36 174.074 221.048 174.074 220.68V205.32C174.074 204.952 174.202 204.64 174.458 204.384C174.73 204.128 175.042 204 175.394 204C175.746 204 176.05 204.128 176.306 204.384C176.578 204.64 176.714 204.952 176.714 205.32V220.68C176.714 221.048 176.578 221.36 176.306 221.616ZM182.071 221.64C181.831 221.88 181.535 222 181.183 222C180.831 222 180.535 221.88 180.295 221.64C180.055 221.4 179.935 221.104 179.935 220.752V205.248C179.935 204.896 180.055 204.6 180.295 204.36C180.535 204.12 180.831 204 181.183 204C181.535 204 181.831 204.12 182.071 204.36C182.327 204.6 182.455 204.896 182.455 205.248V211.056C182.455 211.072 182.463 211.08 182.479 211.08C182.495 211.08 182.511 211.072 182.527 211.056C183.647 209.872 184.903 209.28 186.295 209.28C187.751 209.28 188.815 209.688 189.487 210.504C190.159 211.304 190.495 212.656 190.495 214.56V220.776C190.495 221.112 190.375 221.4 190.135 221.64C189.895 221.88 189.607 222 189.271 222C188.935 222 188.647 221.88 188.407 221.64C188.167 221.4 188.047 221.112 188.047 220.776V215.04C188.047 213.552 187.871 212.56 187.519 212.064C187.167 211.568 186.519 211.32 185.575 211.32C184.839 211.32 184.135 211.672 183.463 212.376C182.791 213.064 182.455 213.792 182.455 214.56V220.752C182.455 221.104 182.327 221.4 182.071 221.64ZM200.983 215.76C200.983 212.72 199.879 211.2 197.671 211.2C195.463 211.2 194.359 212.72 194.359 215.76C194.359 218.8 195.463 220.32 197.671 220.32C199.879 220.32 200.983 218.8 200.983 215.76ZM201.991 220.56C200.951 221.68 199.511 222.24 197.671 222.24C195.831 222.24 194.391 221.68 193.351 220.56C192.311 219.424 191.791 217.824 191.791 215.76C191.791 213.696 192.311 212.104 193.351 210.984C194.391 209.848 195.831 209.28 197.671 209.28C199.511 209.28 200.951 209.848 201.991 210.984C203.031 212.104 203.551 213.696 203.551 215.76C203.551 217.824 203.031 219.424 201.991 220.56ZM209.058 216.72C207.426 216.32 206.274 215.816 205.602 215.208C204.946 214.584 204.618 213.808 204.618 212.88C204.618 211.76 205.018 210.88 205.818 210.24C206.634 209.6 207.834 209.28 209.418 209.28C210.442 209.28 211.474 209.392 212.514 209.616C212.802 209.68 213.034 209.84 213.21 210.096C213.402 210.336 213.498 210.608 213.498 210.912C213.498 211.168 213.394 211.368 213.186 211.512C212.978 211.656 212.754 211.688 212.514 211.608C211.506 211.336 210.554 211.2 209.658 211.2C207.978 211.2 207.138 211.68 207.138 212.64C207.138 213.12 207.298 213.512 207.618 213.816C207.938 214.12 208.498 214.368 209.298 214.56C211.138 214.992 212.378 215.512 213.018 216.12C213.658 216.712 213.978 217.592 213.978 218.76C213.978 219.848 213.554 220.704 212.706 221.328C211.874 221.936 210.658 222.24 209.058 222.24C208.018 222.24 206.978 222.104 205.938 221.832C205.65 221.752 205.418 221.592 205.242 221.352C205.066 221.096 204.978 220.816 204.978 220.512C204.978 220.272 205.074 220.08 205.266 219.936C205.474 219.792 205.69 219.76 205.914 219.84C206.906 220.16 207.874 220.32 208.818 220.32C210.578 220.32 211.458 219.8 211.458 218.76C211.458 218.264 211.282 217.864 210.93 217.56C210.578 217.24 209.954 216.96 209.058 216.72ZM221.752 215.712C220.44 215.712 219.448 215.936 218.776 216.384C218.12 216.816 217.792 217.408 217.792 218.16C217.792 218.752 217.968 219.24 218.32 219.624C218.672 220.008 219.096 220.2 219.592 220.2C220.648 220.2 221.488 219.872 222.112 219.216C222.752 218.544 223.072 217.632 223.072 216.48V215.904C223.072 215.776 223 215.712 222.856 215.712H221.752ZM218.992 222.24C217.904 222.24 217.008 221.888 216.304 221.184C215.616 220.48 215.272 219.552 215.272 218.4C215.272 216.992 215.808 215.904 216.88 215.136C217.952 214.352 219.576 213.96 221.752 213.96H222.856C223 213.96 223.072 213.888 223.072 213.744V213.48C223.072 212.632 222.872 212.04 222.472 211.704C222.072 211.368 221.352 211.2 220.312 211.2C219.384 211.2 218.28 211.392 217 211.776C216.76 211.856 216.528 211.824 216.304 211.68C216.096 211.52 215.992 211.312 215.992 211.056C215.992 210.736 216.088 210.448 216.28 210.192C216.472 209.936 216.72 209.776 217.024 209.712C218.176 209.424 219.272 209.28 220.312 209.28C222.328 209.28 223.712 209.64 224.464 210.36C225.216 211.08 225.592 212.4 225.592 214.32V220.824C225.592 221.144 225.472 221.424 225.232 221.664C225.008 221.888 224.736 222 224.416 222C224.096 222 223.816 221.888 223.576 221.664C223.352 221.424 223.232 221.144 223.216 220.824L223.192 220.224C223.192 220.208 223.184 220.2 223.168 220.2C223.136 220.2 223.12 220.208 223.12 220.224C222.192 221.568 220.816 222.24 218.992 222.24Z" fill="#BF7EFF" fill-opacity="0.5"/>
<path d="M26.9248 253.356C26.9248 244.978 23.8633 240.788 17.7404 240.788C11.6175 240.788 8.55599 244.978 8.55599 253.356C8.55599 261.735 11.6175 265.924 17.7404 265.924C23.8633 265.924 26.9248 261.735 26.9248 253.356ZM29.4868 266.698C26.6187 269.888 22.7032 271.483 17.7404 271.483C12.7776 271.483 8.84602 269.888 5.94568 266.698C3.07757 263.507 1.64352 259.06 1.64352 253.356C1.64352 247.652 3.07757 243.205 5.94568 240.015C8.84602 236.824 12.7776 235.229 17.7404 235.229C22.7032 235.229 26.6187 236.824 29.4868 240.015C32.3871 243.205 33.8373 247.652 33.8373 253.356C33.8373 259.06 32.3871 263.507 29.4868 266.698ZM42.7981 255.145V261.719C42.7981 263.008 43.346 264.152 44.4417 265.151C45.5696 266.15 46.8747 266.649 48.3571 266.649C50.0651 266.649 51.4186 265.957 52.4176 264.571C53.4166 263.185 53.9161 261.139 53.9161 258.432C53.9161 252.953 52.0631 250.214 48.3571 250.214C46.8747 250.214 45.5696 250.714 44.4417 251.713C43.346 252.712 42.7981 253.856 42.7981 255.145ZM39.1727 281.635C38.4315 281.635 37.787 281.361 37.2391 280.813C36.6913 280.265 36.4174 279.62 36.4174 278.879V248.619C36.4174 247.878 36.6913 247.233 37.2391 246.685C37.787 246.138 38.4315 245.864 39.1727 245.864H39.7528C40.5262 245.864 41.1868 246.138 41.7347 246.685C42.2825 247.201 42.5725 247.846 42.6048 248.619V248.957C42.6048 248.99 42.6209 249.006 42.6531 249.006C42.6853 249.006 42.7176 248.99 42.7498 248.957C43.9099 247.668 45.0701 246.75 46.2302 246.202C47.3903 245.654 48.7438 245.38 50.2907 245.38C53.3199 245.38 55.7369 246.524 57.5415 248.812C59.3462 251.068 60.2485 254.275 60.2485 258.432C60.2485 262.46 59.2978 265.65 57.3965 268.003C55.5274 270.323 53.1588 271.483 50.2907 271.483C47.487 271.483 45.0539 270.468 42.9915 268.438C42.9593 268.406 42.927 268.39 42.8948 268.39C42.8626 268.39 42.8465 268.406 42.8465 268.438V278.879C42.8465 279.62 42.5725 280.265 42.0247 280.813C41.5091 281.361 40.8807 281.635 40.1395 281.635H39.1727ZM73.7521 249.876C72.1085 249.876 70.8356 250.343 69.9333 251.278C69.0632 252.18 68.5153 253.646 68.2898 255.677C68.2898 255.934 68.4187 256.063 68.6765 256.063H78.1509C78.4087 256.063 78.5376 255.934 78.5376 255.677C78.4087 251.809 76.8135 249.876 73.7521 249.876ZM74.9605 271.483C70.7389 271.483 67.4841 270.388 65.1961 268.196C62.9403 265.973 61.8123 262.718 61.8123 258.432C61.8123 254.178 62.8275 250.939 64.8577 248.716C66.8879 246.492 69.8205 245.38 73.6554 245.38C80.8096 245.38 84.4833 249.441 84.6767 257.562C84.7089 258.335 84.435 258.98 83.8549 259.495C83.2749 260.011 82.5981 260.269 81.8247 260.269H68.6281C68.3381 260.269 68.2253 260.414 68.2898 260.704C68.5153 262.863 69.2243 264.442 70.4167 265.441C71.6413 266.408 73.4137 266.891 75.734 266.891C77.1841 266.891 78.7954 266.649 80.5679 266.166C81.1479 266.005 81.6797 266.102 82.1631 266.456C82.6787 266.811 82.9365 267.294 82.9365 267.906C82.9365 268.648 82.7109 269.308 82.2597 269.888C81.8408 270.436 81.2768 270.774 80.5679 270.903C78.7632 271.29 76.8941 271.483 74.9605 271.483ZM90.2307 271C89.4896 271 88.845 270.726 88.2972 270.178C87.7493 269.63 87.4754 268.986 87.4754 268.245V248.619C87.4754 247.878 87.7493 247.233 88.2972 246.685C88.845 246.138 89.4896 245.864 90.2307 245.864H90.8592C91.6326 245.864 92.2771 246.138 92.7927 246.685C93.3406 247.201 93.6306 247.846 93.6628 248.619V248.957C93.6628 248.99 93.6789 249.006 93.7112 249.006C93.7434 249.006 93.7756 248.99 93.8078 248.957C95.9992 246.573 98.5612 245.38 101.494 245.38C104.426 245.38 106.553 246.218 107.874 247.894C109.228 249.537 109.905 252.293 109.905 256.16V268.245C109.905 268.986 109.631 269.63 109.083 270.178C108.535 270.726 107.891 271 107.149 271H106.328C105.586 271 104.942 270.726 104.394 270.178C103.878 269.63 103.621 268.986 103.621 268.245V256.643C103.621 254.226 103.298 252.583 102.654 251.713C102.042 250.81 100.93 250.359 99.3185 250.359C97.9972 250.359 96.7726 250.923 95.6447 252.051C94.5168 253.179 93.9529 254.388 93.9529 255.677V268.245C93.9529 268.986 93.6789 269.63 93.1311 270.178C92.5832 270.726 91.9387 271 91.1975 271H90.2307ZM135.469 256.112C131.602 254.823 128.798 253.26 127.058 251.423C125.35 249.586 124.496 247.362 124.496 244.752C124.496 241.819 125.479 239.499 127.445 237.791C129.411 236.083 132.166 235.229 135.711 235.229C138.708 235.229 141.318 235.568 143.542 236.244C144.315 236.47 144.928 236.937 145.379 237.646C145.862 238.323 146.104 239.08 146.104 239.918V240.353C146.104 240.965 145.83 241.449 145.282 241.803C144.734 242.126 144.17 242.174 143.59 241.948C141.173 241.014 138.708 240.546 136.194 240.546C134.583 240.546 133.358 240.917 132.521 241.658C131.683 242.399 131.264 243.431 131.264 244.752C131.264 247.072 132.778 248.732 135.808 249.731C140.158 251.117 143.171 252.696 144.847 254.468C146.555 256.24 147.409 258.529 147.409 261.332C147.409 268.1 143.236 271.483 134.889 271.483C132.279 271.483 129.91 271.081 127.783 270.275C127.01 269.985 126.398 269.485 125.946 268.776C125.528 268.067 125.318 267.278 125.318 266.408V265.828C125.318 265.215 125.576 264.78 126.091 264.523C126.607 264.233 127.139 264.216 127.687 264.474C129.814 265.538 132.053 266.069 134.406 266.069C138.498 266.069 140.545 264.523 140.545 261.429C140.545 260.172 140.158 259.141 139.385 258.335C138.611 257.497 137.306 256.756 135.469 256.112ZM165.731 252.099C164.796 250.746 163.378 250.069 161.477 250.069C159.576 250.069 158.142 250.746 157.175 252.099C156.24 253.421 155.773 255.532 155.773 258.432C155.773 261.332 156.24 263.459 157.175 264.813C158.142 266.134 159.576 266.795 161.477 266.795C163.378 266.795 164.796 266.134 165.731 264.813C166.698 263.459 167.181 261.332 167.181 258.432C167.181 255.532 166.698 253.421 165.731 252.099ZM170.468 268.1C168.341 270.355 165.344 271.483 161.477 271.483C157.61 271.483 154.597 270.355 152.438 268.1C150.311 265.812 149.247 262.589 149.247 258.432C149.247 254.275 150.311 251.068 152.438 248.812C154.597 246.524 157.61 245.38 161.477 245.38C165.344 245.38 168.341 246.524 170.468 248.812C172.627 251.068 173.707 254.275 173.707 258.432C173.707 262.589 172.627 265.812 170.468 268.1ZM184.159 271.483C181.323 271.483 179.26 270.71 177.971 269.163C176.682 267.584 176.038 264.925 176.038 261.187V248.619C176.038 247.878 176.312 247.233 176.859 246.685C177.407 246.138 178.052 245.864 178.793 245.864H179.566C180.308 245.864 180.952 246.138 181.5 246.685C182.048 247.233 182.322 247.878 182.322 248.619V260.51C182.322 262.766 182.628 264.329 183.24 265.199C183.853 266.069 184.884 266.504 186.334 266.504C187.655 266.504 188.88 265.941 190.008 264.813C191.168 263.685 191.748 262.476 191.748 261.187V248.619C191.748 247.878 192.022 247.233 192.57 246.685C193.117 246.138 193.762 245.864 194.503 245.864H195.47C196.211 245.864 196.84 246.138 197.355 246.685C197.903 247.233 198.177 247.878 198.177 248.619V268.245C198.177 268.986 197.903 269.63 197.355 270.178C196.84 270.726 196.211 271 195.47 271H194.842C194.068 271 193.408 270.742 192.86 270.227C192.344 269.679 192.07 269.018 192.038 268.245L191.99 267.906C191.99 267.874 191.973 267.858 191.941 267.858C191.909 267.858 191.877 267.874 191.845 267.906C189.653 270.291 187.091 271.483 184.159 271.483ZM205.177 271C204.436 271 203.792 270.726 203.244 270.178C202.696 269.63 202.422 268.986 202.422 268.245V248.619C202.422 247.878 202.696 247.233 203.244 246.685C203.792 246.138 204.436 245.864 205.177 245.864H206.144C206.885 245.864 207.53 246.138 208.078 246.685C208.626 247.233 208.9 247.878 208.9 248.619V250.649C208.9 250.682 208.916 250.698 208.948 250.698C209.012 250.698 209.045 250.682 209.045 250.649C209.979 249.36 211.204 248.313 212.718 247.507C214.233 246.669 215.893 246.154 217.697 245.96C218.374 245.896 218.954 246.122 219.437 246.637C219.921 247.121 220.163 247.701 220.163 248.377C220.163 249.054 219.921 249.634 219.437 250.118C218.954 250.601 218.374 250.875 217.697 250.939C211.993 251.39 209.141 254.291 209.141 259.64V268.245C209.141 268.986 208.867 269.63 208.319 270.178C207.772 270.726 207.127 271 206.386 271H205.177ZM233.302 271.483C229.306 271.483 226.228 270.388 224.069 268.196C221.91 265.973 220.831 262.718 220.831 258.432C220.831 254.21 221.862 250.988 223.924 248.764C226.019 246.508 228.984 245.38 232.819 245.38C234.527 245.38 236.17 245.493 237.749 245.719C238.49 245.815 239.103 246.154 239.586 246.734C240.07 247.314 240.311 247.991 240.311 248.764C240.311 249.409 240.053 249.924 239.538 250.311C239.054 250.698 238.49 250.827 237.846 250.698C236.589 250.44 235.187 250.311 233.64 250.311C231.61 250.311 230.096 250.955 229.097 252.244C228.098 253.534 227.598 255.596 227.598 258.432C227.598 261.332 228.13 263.411 229.193 264.668C230.257 265.924 231.9 266.553 234.124 266.553C235.703 266.553 237.072 266.408 238.233 266.118C238.845 265.957 239.393 266.069 239.876 266.456C240.392 266.843 240.65 267.342 240.65 267.955C240.65 268.728 240.408 269.405 239.924 269.985C239.473 270.565 238.877 270.919 238.136 271.048C236.492 271.338 234.881 271.483 233.302 271.483ZM254.901 249.876C253.257 249.876 251.984 250.343 251.082 251.278C250.212 252.18 249.664 253.646 249.438 255.677C249.438 255.934 249.567 256.063 249.825 256.063H259.299C259.557 256.063 259.686 255.934 259.686 255.677C259.557 251.809 257.962 249.876 254.901 249.876ZM256.109 271.483C251.887 271.483 248.633 270.388 246.345 268.196C244.089 265.973 242.961 262.718 242.961 258.432C242.961 254.178 243.976 250.939 246.006 248.716C248.036 246.492 250.969 245.38 254.804 245.38C261.958 245.38 265.632 249.441 265.825 257.562C265.857 258.335 265.583 258.98 265.003 259.495C264.423 260.011 263.747 260.269 262.973 260.269H249.777C249.487 260.269 249.374 260.414 249.438 260.704C249.664 262.863 250.373 264.442 251.565 265.441C252.79 266.408 254.562 266.891 256.882 266.891C258.333 266.891 259.944 266.649 261.716 266.166C262.296 266.005 262.828 266.102 263.311 266.456C263.827 266.811 264.085 267.294 264.085 267.906C264.085 268.648 263.859 269.308 263.408 269.888C262.989 270.436 262.425 270.774 261.716 270.903C259.912 271.29 258.043 271.483 256.109 271.483Z" fill="#BF7EFF"/>
<path d="M76 16C76 10.4772 80.4772 6 86 6H134C152.778 6 168 21.2223 168 40V154H110C91.2223 154 76 138.778 76 120V16Z" stroke="#BF7EFF" stroke-width="12"/>
<path d="M144 45H100C96.6863 45 94 47.6863 94 51C94 54.3137 96.6863 57 100 57H144C147.314 57 150 54.3137 150 51C150 47.6863 147.314 45 144 45Z" fill="#BF7EFF"/>
<path d="M144 69H100C96.6863 69 94 71.6863 94 75C94 78.3137 96.6863 81 100 81H144C147.314 81 150 78.3137 150 75C150 71.6863 147.314 69 144 69Z" fill="#BF7EFF" fill-opacity="0.5"/>
<path d="M144 93H100C96.6863 93 94 95.6863 94 99C94 102.314 96.6863 105 100 105H144C147.314 105 150 102.314 150 99C150 95.6863 147.314 93 144 93Z" fill="#BF7EFF"/>
<path d="M165.535 174.671C178.664 169.151 188.166 159.727 193.292 150.185C198.338 140.682 199.048 131.219 194.553 125.541C190.492 120.454 185.209 118.522 179.847 118.68C174.485 118.838 169.281 121.164 165.535 124.437C161.789 121.164 156.585 118.838 151.223 118.68C145.861 118.522 140.578 120.454 136.517 125.541C132.022 131.219 132.732 140.682 137.857 150.185C142.904 159.727 152.406 169.151 165.535 174.671Z" fill="#BF7EFF" stroke="white" stroke-width="6"/>
</svg>
